<?xml version="1.0" encoding="UTF-8" standalone="no"?>
<svg width="31px" height="27px" viewBox="0 0 31 27" version="1.1" xmlns="http://www.w3.org/2000/svg" xmlns:xlink="http://www.w3.org/1999/xlink" >
    <g id="5--On-Boarding" stroke="none" stroke-width="1" fill="none" fill-rule="evenodd" >
        <g id="On-Boarding---Stage-2" transform="translate(-317.000000, -416.000000)">
            <g id="Complete-your-Signup---Done" transform="translate(303.250000, 403.044783)">
                <g id="Rectangle-26-+-Rectangle-11" transform="translate(14.000000, 12.000000)" >
                    <rect id="Rectangle-26" stroke="#979797" stroke-dasharray="3" fill="#EDEDED" x="4" y="3" width="24" height="24"></rect>
                    <path d="M16.8787154,13.726885 L4.66551176,1.51368128 C3.88770183,0.735871349 2.61744586,0.736416439 1.83363959,1.52022271 L0.801680535,2.55218177 C0.0215870593,3.33227524 0.0149455614,4.6038604 0.795139102,5.38405394 L13.0083428,17.5972576 L12.8479791,17.7576213 L17.1075737,22.0172159 L29.9335914,9.19119817 C30.7210012,8.40378835 30.7163886,7.13833729 29.9330371,6.35498581 L28.5102092,4.93215787 C27.7203437,4.14229241 26.4570422,4.14855824 25.6739968,4.9316036 L16.8787154,13.726885 Z" id="Rectangle-11" fill="#0D4269" transform="translate(15.367822, 11.474279) scale(-1, 1) translate(-15.367822, -11.474279) "></path>
                </g>
            </g>
        </g>
    </g>
</svg>