<?xml version="1.0" encoding="UTF-8" standalone="no"?>
<svg width="114px" height="114px" viewBox="0 0 114 114" version="1.1" xmlns="http://www.w3.org/2000/svg" xmlns:xlink="http://www.w3.org/1999/xlink" >
    <defs></defs>
    <g id="5--On-Boarding" stroke="none" stroke-width="1" fill="none" fill-rule="evenodd" >
        <g id="On-Boarding---Stage-2" transform="translate(-345.000000, -696.000000)">
            <g id="Credit-Card-2" transform="translate(302.750000, 544.227608)">
                <g id="icon-powe" transform="translate(42.000000, 152.000000)">
                    <path d="M57,50.0486779 C48.6388149,50.0486779 41.8563702,56.8311226 41.8563702,65.1923077 C41.8563702,73.5534928 48.6388149,80.3359375 57,80.3359375 C65.3611851,80.3359375 72.1436298,73.5534928 72.1436298,65.1923077 C72.1436298,64.0378606 71.9908353,62.9173678 71.7361779,61.83925 C82.8222656,48.9451623 99.9861779,28.8399904 109.153846,17.3846154 C112.294621,13.4628906 108.839837,9.7533125 104.807692,13.0384615 C93.2376875,22.4607873 73.2557019,39.4804615 60.4081995,50.4688966 C59.3131046,50.2142392 58.1714243,50.0486779 57,50.0486779 L57,50.0486779 Z" id="Shape" fill="#022C4E"></path>
                    <path d="M61.3291767,21.7137921 C61.3291767,19.3158017 59.3810132,17.3676382 56.9830228,17.3676382 C54.5850325,17.3676382 52.636869,19.3158017 52.636869,21.7137921 C52.636869,24.1117825 54.5850325,26.0599459 56.9830228,26.0599459 C59.3810132,26.0599459 61.3291767,24.1117825 61.3291767,21.7137921 L61.3291767,21.7137921 Z" id="Path" fill="#7A91B1"></path>
                    <path d="M87.4060998,56.4830228 C87.4060998,58.8810132 89.3584736,60.8291767 91.7522536,60.8291767 C94.1460337,60.8291767 96.0984075,58.8810132 96.0984075,56.4830228 C96.0984075,54.0850325 94.1460337,52.136869 91.7522536,52.136869 C89.3584736,52.136869 87.4060998,54.0850325 87.4060998,56.4830228 L87.4060998,56.4830228 Z" id="Path" fill="#7A91B1"></path>
                    <path d="M39.5984075,21.7137921 C37.2004171,21.7137921 35.2522536,23.6619555 35.2522536,26.0599459 C35.2522536,28.4579363 37.2004171,30.4060998 39.5984075,30.4060998 C41.9963978,30.4060998 43.9445613,28.4579363 43.9445613,26.0599459 C43.9445613,23.6619555 41.9963978,21.7137921 39.5984075,21.7137921 L39.5984075,21.7137921 Z" id="Path" fill="#7A91B1"></path>
                    <path d="M30.9060998,39.0984075 C30.9060998,36.7004171 28.9579363,34.7522536 26.5599459,34.7522536 C24.1619555,34.7522536 22.2137921,36.7004171 22.2137921,39.0984075 C22.2137921,41.4963978 24.1619555,43.4445613 26.5599459,43.4445613 C28.9579363,43.4445613 30.9060998,41.4963978 30.9060998,39.0984075 L30.9060998,39.0984075 Z" id="Path" fill="#7A91B1"></path>
                    <path d="M17.8676382,56.4830228 C17.8676382,58.8810132 19.8158017,60.8291767 22.2137921,60.8291767 C24.6117825,60.8291767 26.5599459,58.8810132 26.5599459,56.4830228 C26.5599459,54.0850325 24.6117825,52.136869 22.2137921,52.136869 C19.8158017,52.136869 17.8676382,54.0850325 17.8676382,56.4830228 L17.8676382,56.4830228 Z" id="Path" fill="#7A91B1"></path>
                    <path d="M78.7137921,26.0599459 C78.7137921,23.6619555 76.7614183,21.7137921 74.3676382,21.7137921 C71.9738582,21.7137921 70.0214844,23.6619555 70.0214844,26.0599459 C70.0214844,28.4579363 71.9738582,30.4060998 74.3676382,30.4060998 C76.7614183,30.4060998 78.7137921,28.4579363 78.7137921,26.0599459 L78.7137921,26.0599459 Z" id="Path" fill="#7A91B1"></path>
                    <path d="M108.186148,32.6895962 L98.8487079,44.9047332 C99.8673377,48.5970625 100.461538,52.4764123 100.461538,56.5 C100.461538,80.5057091 80.9972885,99.9615385 57,99.9615385 C33.0027115,99.9615385 13.5384615,80.5057091 13.5384615,56.5 C13.5384615,32.5027115 33.0027115,13.0384615 57,13.0384615 C65.9469651,13.0384615 74.2487981,15.7505974 81.1585036,20.385363 L91.9220252,12.1514387 C82.3129507,4.56264663 70.2082332,0 57,0 C25.7959736,0 0.5,25.2959736 0.5,56.5 C0.5,87.7040264 25.7959736,113 57,113 C88.2040264,113 113.5,87.7040264 113.5,56.5 C113.5,47.9816743 111.564603,39.9302885 108.186148,32.6895962 L108.186148,32.6895962 Z" id="Path" fill="#29547B"></path>
                </g>
            </g>
        </g>
    </g>
</svg>