<?xml version="1.0" encoding="UTF-8" standalone="no"?>
<svg width="190px" height="127px" viewBox="0 0 190 127" version="1.1" xmlns="http://www.w3.org/2000/svg" xmlns:xlink="http://www.w3.org/1999/xlink">
    <defs></defs>
    <g id="Page-2" stroke="none" stroke-width="1" fill="none" fill-rule="evenodd">
        <g id="Artboard-1" transform="translate(-112.000000, -164.000000)">
            <g id="Group" transform="translate(112.000000, 164.000000)">
                <path d="M110.841667,13.125 C109.295833,5.6875 102.670833,0 94.5,0 C88.0958333,0 82.575,3.5 79.925,8.75 C73.0791667,9.625 68,15.09375 68,21.875 C68,29.09375 73.9625,35 81.25,35 L109.958333,35 C116.141667,35 121,30.1875 121,24.0625 C121,18.375 116.3625,13.5625 110.841667,13.125 L110.841667,13.125 Z" id="Shape" fill="#538DAB"></path>
                <path d="M179.841667,105.125 C178.295833,97.6875 171.670833,92 163.5,92 C157.095833,92 151.575,95.5 148.925,100.75 C142.079167,101.625 137,107.09375 137,113.875 C137,121.09375 142.9625,127 150.25,127 L178.958333,127 C185.141667,127 190,122.1875 190,116.0625 C190,110.375 185.3625,105.5625 179.841667,105.125 L179.841667,105.125 Z" id="Shape-Copy" fill="#538DAB"></path>
                <path d="M42.8416667,105.125 C41.2958333,97.6875 34.6708333,92 26.5,92 C20.0958333,92 14.575,95.5 11.925,100.75 C5.07916667,101.625 0,107.09375 0,113.875 C0,121.09375 5.9625,127 13.25,127 L41.9583333,127 C48.1416667,127 53,122.1875 53,116.0625 C53,110.375 48.3625,105.5625 42.8416667,105.125 L42.8416667,105.125 Z" id="Shape-Copy-2" fill="#538DAB"></path>
                <rect id="Rectangle-1" fill="#D8D8D8"x="88" y="39" width="14" height="45" rx="8"></rect>
                <rect id="Rectangle-1-Copy" fill="#D8D8D8"transform="translate(79.000000, 92.500000) rotate(55.000000) translate(-79.000000, -92.500000) " x="72" y="66" width="14" height="53" rx="8"></rect>
                <rect id="Rectangle-1-Copy-2" fill="#D8D8D8" transform="translate(111.000000, 92.500000) scale(-1, 1) rotate(55.000000) translate(-111.000000, -92.500000) " x="104" y="66" width="14" height="53" rx="8"></rect>
            </g>
        </g>
    </g>
</svg>