<?xml version="1.0" encoding="UTF-8" standalone="no"?>
<svg width="128px" height="85px" viewBox="0 0 128 85" version="1.1" xmlns="http://www.w3.org/2000/svg" xmlns:xlink="http://www.w3.org/1999/xlink" >
    <g id="Page-2" stroke="none" stroke-width="1" fill="none" fill-rule="evenodd">
        <g id="Artboard-1" transform="translate(-143.000000, -621.000000)">
            <g id="administration" transform="translate(143.000000, 621.000000)">
                <path d="M64,0 C48.5333333,0 35.2,8.5 28.8,21.25 C12.2666667,23.375 0,36.65625 0,53.125 C0,70.65625 14.4,85 32,85 L49.7792969,85 C53.7389323,85 47.3671875,71.7910156 64,71.7910156 C80.6328125,71.7910156 74.641276,85 79.6328125,85 L101.333333,85 C116.266667,85 128,73.3125 128,58.4375 C128,44.625 116.8,32.9375 103.466667,31.875 C99.7333333,13.8125 83.7333333,0 64,0 Z" id="Shape-Copy-4" fill="#FFFFFF" ></path>
                <path d="M63.5,55.5 C71.6125,55.5 78.25,48.8625 78.25,40.75 C78.25,32.6375 71.6125,26 63.5,26 C55.3875,26 48.75,32.6375 48.75,40.75 C48.75,48.8625 55.3875,55.5 63.5,55.5 L63.5,55.5 Z M63.5,62.875 C53.54375,62.875 34,67.66875 34,77.625 L34,85 L93,85 L93,77.625 C93,67.66875 73.45625,62.875 63.5,62.875 L63.5,62.875 Z" id="Shape" fill="#FFFFFF"></path>
            </g>
        </g>
    </g>
</svg>