<?xml version="1.0" encoding="UTF-8" standalone="no"?>
<svg width="128px" height="146px" viewBox="0 0 128 146" version="1.1" xmlns="http://www.w3.org/2000/svg" xmlns:xlink="http://www.w3.org/1999/xlink">
    <g id="Page-2" stroke="none" stroke-width="1" fill="none" fill-rule="evenodd">
        <g id="Artboard-1" transform="translate(-143.000000, -391.000000)">
            <g id="Bridge" transform="translate(143.000000, 391.000000)">
                <path d="M97.6666667,109.333333 L92.6666667,109.333333 L92.6666667,96 C92.6666667,92.3333333 89.6666667,89.3333333 86,89.3333333 L72.6666667,89.3333333 L72.6666667,84.3333333 C72.6666667,79.6666667 69,76 64.3333333,76 C59.6666667,76 56,79.6666667 56,84.3333333 L56,89.3333333 L42.6666667,89.3333333 C39,89.3333333 36,92.3333333 36,96 L36,108.666667 L41,108.666667 C46,108.666667 50,112.666667 50,117.666667 C50,122.666667 46,126.666667 41,126.666667 L36,126.666667 L36,139.333333 C36,143 39,146 42.6666667,146 L55.3333333,146 L55.3333333,141 C55.3333333,136 59.3333333,132 64.3333333,132 C69.3333333,132 73.3333333,136 73.3333333,141 L73.3333333,146 L86,146 C89.6666667,146 92.6666667,143 92.6666667,139.333333 L92.6666667,126 L97.6666667,126 C102.333333,126 106,122.333333 106,117.666667 C106,113 102.333333,109.333333 97.6666667,109.333333 L97.6666667,109.333333 Z" id="Shape" fill="#FFFFFF" ></path>
                <path d="M64,0 C48.5333333,0 35.2,8.5 28.8,21.25 C12.2666667,23.375 0,36.65625 0,53.125 C0,70.65625 14.4,85 32,85 L49.7792969,85 C53.7389323,85 47.3671875,71.7910156 64,71.7910156 C80.6328125,71.7910156 74.641276,85 79.6328125,85 L101.333333,85 C116.266667,85 128,73.3125 128,58.4375 C128,44.625 116.8,32.9375 103.466667,31.875 C99.7333333,13.8125 83.7333333,0 64,0 Z" id="Shape-Copy-3" fill="#FFFFFF"></path>
            </g>
        </g>
    </g>
</svg>