<?xml version="1.0" encoding="UTF-8" standalone="no"?>
<svg version="1.1" xmlns="http://www.w3.org/2000/svg" xmlns:xlink="http://www.w3.org/1999/xlink">
    <title>gopher</title>
    <defs></defs>
    <g id="0---Icons" stroke="none" stroke-width="1" fill="none" fill-rule="evenodd">
        <g id="Icons-:-Not-in-Material-Icons" transform="translate(-312.000000, -176.000000)">
            <g id="gopher" transform="translate(312.000000, 176.000000)">
                <g id="Group" >
                    <path d="M39.4048802,6.94524873 C38.098982,4.50466784 34.9414371,6.66021738 34.1423054,5.89419564 C30.0491916,2.04627249 25.0984731,1.08429171 21.2197605,0.906147116 L19.0757485,0.906147116 C15.1775449,0.995219411 10.2268263,2.02845803 6.15320359,5.89419564 C5.35407186,6.66021738 2.17703593,4.50466784 0.890628743,6.94524873 C-0.610179641,9.79556217 3.95071856,10.0805935 3.71682635,11.3454201 C3.26853293,13.6256709 3.5608982,17.0104181 3.91173653,20.3417219 C4.45748503,25.9889054 -0.161886228,39.5100798 9.44718563,44.9434898 C11.2598503,45.9767285 16.1520958,46.5467911 20.4011377,46.6358634 L20.4011377,46.6358634 L20.4206287,46.6358634 L20.4401198,46.6358634 L20.4401198,46.6358634 C24.6891617,46.5467911 28.9966766,45.9767285 30.8093413,44.9434898 C40.4379042,39.5100798 35.8185329,25.9889054 36.3837725,20.3417219 C36.7151198,17.0104181 37.007485,13.6256709 36.5786826,11.3454201 C36.3447904,10.0805935 40.9056886,9.77774771 39.4048802,6.94524873 L39.4048802,6.94524873 Z" id="Shape" fill="#000000"></path>
                    <g transform="translate(20.000000, 6.894737)">
                        <path d="M6.91113772,1.77851441 C0.401137725,2.47327831 1.27823353,8.67271005 3.79257485,10.6857439 C8.47041916,14.4267803 13.3431737,10.6857439 12.7974251,6.90907861 C12.3101497,3.27492897 8.93820359,1.5647409 6.91113772,1.77851441 L6.91113772,1.77851441 Z" id="Shape" fill="#FFFFFF"></path>
                        <ellipse id="Oval" fill="#111212" cx="7.35943114" cy="7.12285212" rx="2.22197605" ry="2.03084833"></ellipse>
                        <ellipse id="Oval" fill="#FFFFFF" cx="6.7747006" cy="6.24994363" rx="0.701676647" ry="0.641320525"></ellipse>
                    </g>
                    <g transform="translate(14.750000, 17.421053)" id="Shape" fill="#FFFFFF">
                        <path d="M5.39775449,0.640418527 C2.27919162,1.06796554 1.16820359,1.88743066 1.40209581,3.17007171 C1.79191617,5.27217787 9.14002994,5.04058991 9.37392216,3.27695846 C9.56883234,1.76272945 6.62568862,0.480088396 5.39775449,0.640418527 L5.39775449,0.640418527 Z"></path>
                        <path d="M3.39017964,1.49551256 C2.86392216,3.24132954 7.61973054,2.97411266 7.50278443,1.85180174 C7.44431138,1.19266676 6.80110778,0.355387183 5.10538922,0.391016101 C4.44269461,0.40883056 3.62407186,0.676047445 3.39017964,1.49551256 L3.39017964,1.49551256 Z"></path>
                        <path d="M3.54610778,4.32801155 C3.37068862,4.39926938 3.07832335,6.14508637 3.97491018,6.23415866 C4.57913174,6.28760204 6.23586826,6.46574663 6.62568862,6.23415866 C7.38583832,5.78879719 7.30787425,4.71992964 6.87907186,4.45271276 C6.15790419,4.02516574 3.74101796,4.23893925 3.54610778,4.32801155 L3.54610778,4.32801155 Z"></path>
                    </g>
                    <g transform="translate(6.875000, 6.894737)">
                        <path d="M6.47038922,1.77851441 C12.9803892,2.47327831 12.1032934,8.67271005 9.5889521,10.6857439 C4.91110778,14.4267803 0.0383532934,10.6857439 0.584101796,6.90907861 C1.09086826,3.27492897 4.46281437,1.5647409 6.47038922,1.77851441 L6.47038922,1.77851441 Z" id="Shape" fill="#FFFFFF"></path>
                        <ellipse id="Oval" fill="#111212" cx="6.04158683" cy="7.12285212" rx="2.22197605" ry="2.03084833"></ellipse>
                        <ellipse id="Oval" fill="#FFFFFF" cx="6.62631737" cy="6.24994363" rx="0.701676647" ry="0.641320525"></ellipse>
                    </g>
                    <path d="M36.7346108,32.259595 C38.8786228,32.2774095 37.8261078,28.0731971 36.5007186,28.9104767 C35.857515,29.3202093 35.7405689,30.2643756 35.7405689,31.0660262 C35.7405689,31.5113877 36.1303892,32.2417805 36.7346108,32.259595 L36.7346108,32.259595 Z" id="Shape" fill="#000000"></path>
                    <path d="M3.54140719,32.259595 C1.39739521,32.2774095 2.44991018,28.0731971 3.7752994,28.9104767 C4.41850299,29.3202093 4.5354491,30.2643756 4.5354491,31.0660262 C4.5354491,31.5113877 4.14562874,32.2417805 3.54140719,32.259595 L3.54140719,32.259595 Z" id="Shape" fill="#000000"></path>
                    <path d="M32.660988,45.1750778 C31.4915269,43.5895909 30.439012,44.8187886 28.7432934,45.6026248 C27.9441617,45.9767285 30.0686826,47.3128129 32.4465868,46.3152032 C33.0702994,46.0479863 33.0508084,45.6916971 32.660988,45.1750778 L32.660988,45.1750778 Z" id="Shape" fill="#000000"></path>
                    <path d="M7.61502994,45.3532224 C8.78449102,43.7677355 9.83700599,44.9969332 11.5327246,45.7807694 C12.3318563,46.154873 10.2073353,47.4909575 7.82943114,46.4933478 C7.20571856,46.2261309 7.22520958,45.8698417 7.61502994,45.3532224 L7.61502994,45.3532224 Z" id="Shape" fill="#000000"></path>
                    <path d="M35.7600599,7.37279574 C35.6431138,7.74689938 36.1693713,7.69345601 36.3642814,8.85139584 C36.4422455,9.27894286 38.1184731,8.22788978 37.4362874,7.46186804 C36.8710479,6.82054751 35.857515,6.9986921 35.7600599,7.37279574 L35.7600599,7.37279574 Z" id="Shape" fill="#FFFFFF"></path>
                    <path d="M4.51595808,7.37279574 C4.63290419,7.74689938 4.10664671,7.69345601 3.91173653,8.85139584 C3.83377246,9.27894286 2.15754491,8.22788978 2.83973054,7.46186804 C3.38547904,6.82054751 4.39901198,6.9986921 4.51595808,7.37279574 L4.51595808,7.37279574 Z" id="Shape" fill="#FFFFFF"></path>
                </g>
            </g>
        </g>
    </g>
</svg>