<?xml version="1.0" encoding="UTF-8" standalone="no"?>
<svg
   xmlns:dc="http://purl.org/dc/elements/1.1/"
   xmlns:cc="http://creativecommons.org/ns#"
   xmlns:rdf="http://www.w3.org/1999/02/22-rdf-syntax-ns#"
   xmlns:svg="http://www.w3.org/2000/svg"
   xmlns="http://www.w3.org/2000/svg"
   xmlns:sodipodi="http://sodipodi.sourceforge.net/DTD/sodipodi-0.dtd"
   xmlns:inkscape="http://www.inkscape.org/namespaces/inkscape"
   width="17"
   height="17"
   viewBox="0 0 17 17"
   version="1.1"
   id="svg4204"
   inkscape:version="0.91 r13725"
   sodipodi:docname="icon-wkps.svg">
  <metadata
     id="metadata4220">
    <rdf:RDF>
      <cc:Work
         rdf:about="">
        <dc:format>image/svg+xml</dc:format>
        <dc:type
           rdf:resource="http://purl.org/dc/dcmitype/StillImage" />
        <dc:title></dc:title>
      </cc:Work>
    </rdf:RDF>
  </metadata>
  <defs
     id="defs4218" />
  <sodipodi:namedview
     pagecolor="#ffffff"
     bordercolor="#666666"
     borderopacity="1"
     objecttolerance="10"
     gridtolerance="10"
     guidetolerance="10"
     inkscape:pageopacity="0"
     inkscape:pageshadow="2"
     inkscape:window-width="2120"
     inkscape:window-height="1166"
     id="namedview4216"
     showgrid="false"
     inkscape:zoom="40.833333"
     inkscape:cx="8.5"
     inkscape:cy="7.5"
     inkscape:window-x="0"
     inkscape:window-y="0"
     inkscape:window-maximized="0"
     inkscape:current-layer="svg4204" />
  <g
     id="g4206"
     style="fill-rule:evenodd;stroke:none;stroke-width:1"
     transform="translate(0,2)">
    <g
       id="g4208">
      <path
         d="m 7.2304021,1.59375 0,0 -0.3961014,0 L 6.7212492,1.2141243 6.4048398,0.15162427 6.9139926,0.53125 0.53125,0.53125 1.0625,0 l 0,2.125 0,1.0625 -0.53125,-0.53125 15.9375,0 -0.53125,0.53125 0,-2.125 0.53125,0.53125 -9.2383479,0 z m 0,-0.53125 9.2383479,0 0,2.125 -15.9375,0 0,-1.0625 0,-2.125 6.3827426,0 0.3164095,1.0625 0,0 z"
         id="path4210"
         inkscape:connector-curvature="0" />
      <path
         d="m 5.3125,12.21875 -5.3125,0 0,-9.5625 17,0 0,9.5625 -10.625,0 0,-0.53125 10.09375,0 0,-8.5 -15.9375,0 0,8.5 4.78125,0 0,0.53125 z"
         id="path4212"
         inkscape:connector-curvature="0" />
      <path
         d="M 7.307282,6.9941057 C 8.1503923,7.1409424 9.03125,7.3474881 9.03125,7.3474881 l 0,-2.4572584 c 0,0 -4.683197,-0.1906909 -5.772588,0.2866057 C 2.0979559,5.6311405 1.59375,7.3474881 1.59375,7.3474881 c 0,0 0.6138383,0.1510145 0.7181905,-10e-8 0.4338023,-0.6277821 0.7168933,-1.0542744 1.9192097,-1.0542744 0.020902,0 0.041488,4.787e-4 0.061781,0.00141 l 0.4883183,3.2055624 2.125,0 0.401032,-2.5060784 0,0 z M 9.03125,4.7817603 C 9.03125,4.4880772 9.2670532,4.25 9.5625,4.25 l 0.53125,0 0,3.767218 -0.53125,0 c -0.2934012,0 -0.53125,-0.2356564 -0.53125,-0.5317603 l 0,-2.7036974 0,0 z m -4.25,5.2565977 2.125,0 0,4.305392 -2.125,0 0,-4.305392 0,0 z m 0.53125,0.66973 1.0625,0 0,3.229044 -1.0625,0 0,-3.229044 0,0 z"
         id="path4214"
         inkscape:connector-curvature="0" />
    </g>
  </g>
</svg>
