<?xml version="1.0" encoding="UTF-8" standalone="no"?>
<!--

    Copyright (c) 2015-2016 Codenvy, S.A.
    All rights reserved. This program and the accompanying materials
    are made available under the terms of the Eclipse Public License v1.0
    which accompanies this distribution, and is available at
    http://www.eclipse.org/legal/epl-v10.html

    Contributors:
      Codenvy, S.A. - initial API and implementation

-->
<svg xmlns="http://www.w3.org/2000/svg" xmlns:xlink="http://www.w3.org/1999/xlink"
   width="512"
   height="512"
   viewBox="0 0 512 512"
   version="1.1">
  <g
     id="Page-1"
     style="fill:none;fill-rule:evenodd;stroke:none;stroke-width:1"
     transform="translate(67.593994,-1.15e-4)">
    <g
       id="java"
       style="fill:#000000">
      <path
         d="m 121.21534,395.95513 c 0,0 -19.56715,11.37815 13.92246,15.22849 40.57116,4.62836 61.30883,3.96483 106.01771,-4.49752 0,0 11.75431,7.37127 28.17202,13.75424 -100.22818,42.95894 -226.83871,-2.4859 -148.11219,-24.48521"
         id="path1901"/>
      <path
         d="m 108.96806,339.9008 c 0,0 -21.94558,16.24482 11.56973,19.70967 43.33976,4.47182 77.56767,4.83863 136.79245,-6.56755 0,0 8.19134,8.30581 21.07411,12.84773 -121.18547,35.4358 -256.16256,2.7943 -169.43629,-25.98985"
         id="path1903"/>
      <path
         d="m 212.21717,244.81265 c 24.69549,28.43369 -6.48812,54.02168 -6.48812,54.02168 0,0 62.70832,-32.37282 33.91016,-72.91127 -26.8987,-37.80256 -47.52422,-56.58702 64.14052,-121.34668 0,-0.002 -175.27724,43.77433 -91.56256,140.23627"
         id="path1905"/>
      <path
         d="m 344.77845,437.42112 c 0,0 14.47852,11.92954 -15.9481,21.15822 -57.851,17.52515 -240.79388,22.81938 -291.61239,0.69624 -18.26812,-7.94601 15.99016,-18.97371 26.76786,-21.28906 11.23796,-2.43684 17.66066,-1.98358 17.66066,-1.98358 -20.31712,-14.3103 -131.315988,28.10193 -56.38375,40.25108 204.3581,33.13915 372.52341,-14.92477 319.51572,-38.8329"
         id="path1907"/>
      <path
         d="m 130.62392,281.82084 c 0,0 -93.0555,22.09978 -32.95224,30.12757 25.37538,3.39709 75.96492,2.62842 123.08728,-1.31772 38.51047,-3.2499 77.17749,-10.15623 77.17749,-10.15623 0,0 -13.57901,5.81524 -23.40347,12.52298 C 180.03826,337.8518 -2.512106,326.28674 50.04233,300.86698 94.4872,279.384 130.62392,281.82084 130.62392,281.82084"
         id="path1909"/>
      <path
         d="m 297.55329,375.12867 c 96.05774,-49.91666 51.64324,-97.88479 20.64187,-91.42237 -7.59789,1.58172 -10.98563,2.95084 -10.98563,2.95084 0,0 2.82234,-4.41809 8.21002,-6.32924 61.32752,-21.56241 108.49427,63.59147 -19.79845,97.31705 0,0 1.48827,-1.32706 1.93219,-2.51628"
         id="path1911"/>
      <path
         d="m 239.63921,2.1314874e-4 c 0,0 53.19693,53.21561985126 -50.45871,135.04951685126 -83.12123,65.6428 -18.95501,103.07154 -0.035,145.83423 C 140.62595,237.10729 105.01958,198.57111 128.90669,162.7054 163.97101,110.05752 261.10115,84.532613 239.63921,2.1314874e-4"
         id="path1913"/>
      <path
         d="m 140.06288,510.3908 c 92.20506,5.90169 233.7941,-3.27559 237.14913,-46.90507 0,0 -6.44606,16.5392 -76.20323,29.6743 -78.69847,14.81029 -175.76319,13.08137 -233.33149,3.58868 0.002,0 11.78468,9.75437 72.38559,13.64209"
         id="path1915"/>
    </g>
  </g>
</svg>
