<?xml version="1.0" encoding="UTF-8" standalone="no"?>
<svg
   xmlns:sketch="http://www.bohemiancoding.com/sketch/ns"
   xmlns:dc="http://purl.org/dc/elements/1.1/"
   xmlns:cc="http://creativecommons.org/ns#"
   xmlns:rdf="http://www.w3.org/1999/02/22-rdf-syntax-ns#"
   xmlns:svg="http://www.w3.org/2000/svg"
   xmlns="http://www.w3.org/2000/svg"
   xmlns:sodipodi="http://sodipodi.sourceforge.net/DTD/sodipodi-0.dtd"
   xmlns:inkscape="http://www.inkscape.org/namespaces/inkscape"
   width="787"
   height="787"
   viewBox="0 0 787 787"
   version="1.1"
   id="svg3596"
   inkscape:version="0.91 r13725"
   sodipodi:docname="type-php.svg">
  <metadata
     id="metadata3615">
    <rdf:RDF>
      <cc:Work
         rdf:about="">
        <dc:format>image/svg+xml</dc:format>
        <dc:type
           rdf:resource="http://purl.org/dc/dcmitype/StillImage" />
        <dc:title>Slice 2</dc:title>
      </cc:Work>
    </rdf:RDF>
  </metadata>
  <sodipodi:namedview
     pagecolor="#ffffff"
     bordercolor="#666666"
     borderopacity="1"
     objecttolerance="10"
     gridtolerance="10"
     guidetolerance="10"
     inkscape:pageopacity="0"
     inkscape:pageshadow="2"
     inkscape:window-width="1524"
     inkscape:window-height="860"
     id="namedview3613"
     showgrid="false"
     inkscape:zoom="0.46632783"
     inkscape:cx="68.621253"
     inkscape:cy="223.5"
     inkscape:window-x="0"
     inkscape:window-y="0"
     inkscape:window-maximized="0"
     inkscape:current-layer="svg3596" />
  <!-- Generator: Sketch 3.0.4 (8054) - http://www.bohemiancoding.com/sketch -->
  <title
     id="title3598">Slice 2</title>
  <desc
     id="desc3600">Created with Sketch.</desc>
  <defs
     id="defs3602" />
  <g
     id="Page-1"
     sketch:type="MSPage"
     style="fill:none;fill-rule:evenodd;stroke:none;stroke-width:1"
     transform="translate(0,170)">
    <g
       id="Layer_2"
       sketch:type="MSLayerGroup"
       transform="translate(140,103)"
       style="fill:#000003">
      <g
         id="Group"
         sketch:type="MSShapeGroup">
        <path
           d="m 101.462,81.061 c 15.821,0 26.365,2.92 31.637,8.761 5.267,5.841 6.522,15.867 3.766,30.074 -2.879,14.795 -8.423,25.355 -16.641,31.682 -8.218,6.328 -20.724,9.488 -37.513,9.488 l -25.33,0 15.549,-80.005 28.532,0 0,0 z M 0,242.057 l 41.643,0 9.877,-50.823 35.669,0 c 15.739,0 28.686,-1.65 38.85,-4.96 10.165,-3.305 19.402,-8.848 27.717,-16.63 6.978,-6.415 12.624,-13.49 16.948,-21.227 4.319,-7.731 7.388,-16.267 9.202,-25.601 4.406,-22.66 1.081,-40.31 -9.965,-52.955 C 158.895,57.216 141.322,50.894 117.232,50.894 l -80.078,0 L 0,242.057 l 0,0 z"
           id="Shape"
           inkscape:connector-curvature="0" />
        <path
           d="m 210.49,0.071 41.314,0 -9.878,50.823 36.806,0 c 23.157,0 39.132,4.042 47.924,12.117 8.791,8.08 11.425,21.17 7.91,39.266 l -17.286,88.957 -41.97,0 16.436,-84.582 c 1.87,-9.622 1.184,-16.185 -2.064,-19.684 -3.248,-3.5 -10.159,-5.251 -20.729,-5.251 l -33.02,0 -21.283,109.516 -41.315,0 37.155,-191.162 0,0 z"
           id="path3608"
           inkscape:connector-curvature="0" />
        <path
           d="m 426.49,81.061 c 15.821,0 26.365,2.92 31.637,8.761 5.269,5.841 6.523,15.867 3.766,30.074 -2.879,14.795 -8.421,25.355 -16.641,31.682 -8.218,6.328 -20.724,9.488 -37.513,9.488 l -25.329,0 15.549,-80.005 28.531,0 0,0 z m -101.461,160.996 41.643,0 9.876,-50.823 35.669,0 c 15.739,0 28.686,-1.65 38.851,-4.96 10.164,-3.305 19.401,-8.848 27.717,-16.63 6.979,-6.415 12.624,-13.49 16.948,-21.227 4.318,-7.731 7.388,-16.267 9.201,-25.601 4.406,-22.66 1.082,-40.31 -9.965,-52.955 C 483.923,57.216 466.35,50.894 442.26,50.894 l -80.076,0 -37.155,191.163 0,0 z"
           id="path3610"
           inkscape:connector-curvature="0" />
      </g>
    </g>
    <ellipse
       id="Oval-1"
       sketch:type="MSShapeGroup"
       cx="393.5"
       cy="223.5"
       rx="377.5"
       ry="207.5"
       style="stroke:#000003;stroke-width:32" />
  </g>
</svg>
