<?xml version="1.0" encoding="UTF-8" standalone="no"?>
<svg
   xmlns:dc="http://purl.org/dc/elements/1.1/"
   xmlns:cc="http://creativecommons.org/ns#"
   xmlns:rdf="http://www.w3.org/1999/02/22-rdf-syntax-ns#"
   xmlns:svg="http://www.w3.org/2000/svg"
   xmlns="http://www.w3.org/2000/svg"
   xmlns:sodipodi="http://sodipodi.sourceforge.net/DTD/sodipodi-0.dtd"
   xmlns:inkscape="http://www.inkscape.org/namespaces/inkscape"
   width="190"
   height="190"
   viewBox="0 0 190 190"
   version="1.1"
   id="svg2"
   inkscape:version="0.91 r13725"
   sodipodi:docname="your-installation.svg">
  <metadata
     id="metadata17">
    <rdf:RDF>
      <cc:Work
         rdf:about="">
        <dc:format>image/svg+xml</dc:format>
        <dc:type
           rdf:resource="http://purl.org/dc/dcmitype/StillImage" />
        <dc:title></dc:title>
      </cc:Work>
    </rdf:RDF>
  </metadata>
  <sodipodi:namedview
     pagecolor="#ffffff"
     bordercolor="#666666"
     borderopacity="1"
     objecttolerance="10"
     gridtolerance="10"
     guidetolerance="10"
     inkscape:pageopacity="0"
     inkscape:pageshadow="2"
     inkscape:window-width="1821"
     inkscape:window-height="831"
     id="namedview15"
     showgrid="false"
     inkscape:zoom="1.8582677"
     inkscape:cx="95"
     inkscape:cy="63.5"
     inkscape:window-x="0"
     inkscape:window-y="0"
     inkscape:window-maximized="0"
     inkscape:current-layer="svg2" />
  <defs
     id="defs4" />
  <g
     id="Page-2"
     style="fill:#008000;fill-rule:evenodd;stroke:none;stroke-width:1"
     transform="translate(0,33)">
    <g
       id="Artboard-1"
       transform="translate(-112,-164)"
       style="fill:#008000">
      <g
         id="Group"
         transform="translate(112,164)"
         style="fill:#008000">
        <path
           d="M 110.84167,13.125 C 109.29583,5.6875 102.67083,0 94.5,0 88.095833,0 82.575,3.5 79.925,8.75 73.079167,9.625 68,15.09375 68,21.875 68,29.09375 73.9625,35 81.25,35 l 28.70833,0 C 116.14167,35 121,30.1875 121,24.0625 c 0,-5.6875 -4.6375,-10.5 -10.15833,-10.9375 l 0,0 z"
           id="Shape"
           style="fill:#008000"
           inkscape:connector-curvature="0" />
        <path
           d="M 179.84167,105.125 C 178.29583,97.6875 171.67083,92 163.5,92 c -6.40417,0 -11.925,3.5 -14.575,8.75 -6.84583,0.875 -11.925,6.34375 -11.925,13.125 0,7.21875 5.9625,13.125 13.25,13.125 l 28.70833,0 C 185.14167,127 190,122.1875 190,116.0625 c 0,-5.6875 -4.6375,-10.5 -10.15833,-10.9375 l 0,0 z"
           id="Shape-Copy"
           style="fill:#008000"
           inkscape:connector-curvature="0" />
        <path
           d="M 42.841667,105.125 C 41.295833,97.6875 34.670833,92 26.5,92 20.095833,92 14.575,95.5 11.925,100.75 5.0791667,101.625 0,107.09375 0,113.875 0,121.09375 5.9625,127 13.25,127 l 28.708333,0 C 48.141667,127 53,122.1875 53,116.0625 c 0,-5.6875 -4.6375,-10.5 -10.158333,-10.9375 l 0,0 z"
           id="Shape-Copy-2"
           style="fill:#008000"
           inkscape:connector-curvature="0" />
        <rect
           id="Rectangle-1"
           x="88"
           y="39"
           width="14"
           height="45"
           rx="8"
           style="fill:#008000" />
        <rect
           id="Rectangle-1-Copy"
           transform="matrix(0.57357644,0.81915204,-0.81915204,0.57357644,109.45903,-25.268832)"
           x="72"
           y="66"
           width="14"
           height="53"
           rx="8"
           style="fill:#008000" />
        <rect
           id="Rectangle-1-Copy-2"
           transform="matrix(-0.57357644,0.81915204,0.81915204,0.57357644,98.89542,-51.481697)"
           x="104"
           y="66"
           width="14"
           height="53"
           rx="8"
           style="fill:#008000" />
      </g>
    </g>
  </g>
</svg>
